IKResults
version=1
nRows=14
nColumns=50
inDegrees=yes

Units are S.I. units (second, meters, Newtons, ...)
If the header above contains a line with 'inDegrees', this indicates whether rotational values are in degrees (yes) or radians (no).

endheader
time	pelvis_tilt	pelvis_list	pelvis_rotation	pelvis_tx	pelvis_ty	pelvis_tz	hip_flexion_r	hip_adduction_r	hip_rotation_r	knee_angle_r	knee_angle_r_beta	ankle_angle_r	subtalar_angle_r	mtp_angle_r	hip_flexion_l	hip_adduction_l	hip_rotation_l	knee_angle_l	knee_angle_l_beta	socket_flexion	socket_adduction	socket_rotation	socket_tx	socket_ty	socket_tz	pros_ankle_rx	pros_ankle_ry	pros_ankle_rz	pros_ankle_tx	pros_ankle_ty	pros_ankle_tz	foot_flex	lumbar_extension	lumbar_bending	lumbar_rotation	arm_flex_r	arm_add_r	arm_rot_r	elbow_flex_r	pro_sup_r	wrist_flex_r	wrist_dev_r	arm_flex_l	arm_add_l	arm_rot_l	elbow_flex_l	pro_sup_l	wrist_flex_l	wrist_dev_l
      0.00000000	     -3.28376753	     -7.62619734	     -8.78918567	     -0.79689846	      1.03759286	      0.36419006	    -17.57105560	      7.09847529	     11.27317098	      1.93496166	      0.03377145	      2.13451814	      0.00000000	      0.00000000	     22.53000670	     -8.66097991	     -0.49030253	      5.22089044	      0.09112173	      5.18003175	      2.71285915	      5.02034247	      0.00000000	     -0.01321765	      0.00000000	      0.00000000	      0.00000000	      0.00000000	      0.00000000	      0.00000000	      0.00000000	     10.47413541	    -17.67969101	      5.29642231	     17.24647420	      0.00000000	     -4.91144218	      0.00000000	     78.82062378	     82.46098991	      0.00000000	      0.00000000	      0.00000000	     -4.91144218	      0.00000000	     78.82062378	     82.46098991	      0.00000000	      0.00000000
      0.00418120	     -3.30087616	     -7.64454572	     -8.87333405	     -0.79204341	      1.03666949	      0.36422195	    -17.80883844	      7.03978803	     11.30219735	      1.99953104	      0.03489840	      2.13064285	      0.00000000	      0.00000000	     22.62945354	     -8.66687184	     -0.50449339	      5.34019742	      0.09320403	      4.92137872	      2.69392220	      5.06337744	      0.00000000	     -0.01249349	      0.00000000	      0.00000000	      0.00000000	      0.00000000	      0.00000000	      0.00000000	      0.00000000	     10.18435445	    -17.64934385	      5.24544703	     17.26195296	      0.00000000	     -4.91317271	      0.00000000	     78.81934879	     82.46274558	      0.00000000	      0.00000000	      0.00000000	     -4.91317271	      0.00000000	     78.81934879	     82.46274558	      0.00000000	      0.00000000
      0.00836240	     -3.32040664	     -7.66166181	     -8.96188155	     -0.78700228	      1.03571655	      0.36424571	    -18.05289943	      6.97261285	     11.33782751	      2.06347107	      0.03601436	      2.13241507	      0.00000000	      0.00000000	     22.73498109	     -8.66991424	     -0.50737600	      5.47375830	      0.09553510	      4.64349957	      2.68256364	      5.11227164	      0.00000000	     -0.01173504	      0.00000000	      0.00000000	      0.00000000	      0.00000000	      0.00000000	      0.00000000	      0.00000000	      9.88233899	    -17.62126885	      5.19292817	     17.27570343	      0.00000000	     -4.91436762	      0.00000000	     78.81846878	     82.46395764	      0.00000000	      0.00000000	      0.00000000	     -4.91436762	      0.00000000	     78.81846878	     82.46395764	      0.00000000	      0.00000000
      0.01254400	     -3.34221076	     -7.67417068	     -9.05345745	     -0.78179493	      1.03475539	      0.36428434	    -18.30054023	      6.89827833	     11.38032937	      2.12852891	      0.03714984	      2.13736978	      0.00000000	      0.00000000	     22.84564820	     -8.67286939	     -0.50054814	      5.62163722	      0.09811608	      4.34659520	      2.67580373	      5.16234569	      0.00000000	     -0.01097379	      0.00000000	      0.00000000	      0.00000000	      0.00000000	      0.00000000	      0.00000000	      0.00000000	      9.57233677	    -17.59441702	      5.13232271	     17.28877675	      0.00000000	     -4.91536594	      0.00000000	     78.81773376	     82.46497016	      0.00000000	      0.00000000	      0.00000000	     -4.91536594	      0.00000000	     78.81773376	     82.46497016	      0.00000000	      0.00000000
      0.01672500	     -3.36728316	     -7.68531422	     -9.13897692	     -0.77642249	      1.03374482	      0.36427974	    -18.55307492	      6.82020043	     11.43556791	      2.19731836	      0.03835044	      2.14230819	      0.00000000	      0.00000000	     22.96081846	     -8.66789395	     -0.49163393	      5.78620730	      0.10098837	      4.02656614	      2.66999277	      5.21892721	      0.00000000	     -0.01007544	      0.00000000	      0.00000000	      0.00000000	      0.00000000	      0.00000000	      0.00000000	      0.00000000	      9.25373351	    -17.56868940	      5.06154264	     17.30293504	      0.00000000	     -4.91629827	      0.00000000	     78.81704746	     82.46591567	      0.00000000	      0.00000000	      0.00000000	     -4.91629827	      0.00000000	     78.81704746	     82.46591567	      0.00000000	      0.00000000
      0.02090600	     -3.42862047	     -7.67934520	     -9.19715549	     -0.77115469	      1.03269143	      0.36417895	    -18.76745433	      6.74230731	     11.62548338	      2.25400772	      0.03933986	      2.20462357	      0.00000000	      0.00000000	     23.18100754	     -8.61133339	     -0.42169713	      6.00802704	      0.10485985	      3.64603538	      2.71933266	      5.35372003	      0.00000000	     -0.00930987	      0.00000000	      0.00000000	      0.00000000	      0.00000000	      0.00000000	      0.00000000	      0.00000000	      8.93165854	    -17.61969902	      4.86301075	     17.36744725	      0.00000000	     -4.91958893	      0.00000000	     78.81462352	     82.46925396	      0.00000000	      0.00000000	      0.00000000	     -4.91958893	      0.00000000	     78.81462352	     82.46925396	      0.00000000	      0.00000000
      0.02508700	     -3.47232427	     -7.66259209	     -9.27929368	     -0.76564925	      1.03167704	      0.36416851	    -19.00256828	      6.64003016	     11.73038099	      2.32145998	      0.04051712	      2.22734352	      0.00000000	      0.00000000	     23.34931996	     -8.56733833	     -0.38414288	      6.24281436	      0.10895767	      3.27515189	      2.74460450	      5.47860445	      0.00000000	     -0.00845783	      0.00000000	      0.00000000	      0.00000000	      0.00000000	      0.00000000	      0.00000000	      0.00000000	      8.64450745	    -17.58309856	      4.74196017	     17.42691479	      0.00000000	     -4.92301194	      0.00000000	     78.81210288	     82.47272609	      0.00000000	      0.00000000	      0.00000000	     -4.92301194	      0.00000000	     78.81210288	     82.47272609	      0.00000000	      0.00000000
      0.02926800	     -3.49146381	     -7.65946362	     -9.37238022	     -0.75994008	      1.03070561	      0.36417018	    -19.26172438	      6.53657519	     11.75539099	      2.40102114	      0.04190572	      2.20723782	      0.00000000	      0.00000000	     23.43632994	     -8.55784840	     -0.38928345	      6.44476034	      0.11248229	      2.92087591	      2.72794185	      5.53236608	      0.00000000	     -0.00745365	      0.00000000	      0.00000000	      0.00000000	      0.00000000	      0.00000000	      0.00000000	      0.00000000	      8.34298341	    -17.51730542	      4.69314997	     17.43733411	      0.00000000	     -4.92397725	      0.00000000	     78.81139279	     82.47370480	      0.00000000	      0.00000000	      0.00000000	     -4.92397725	      0.00000000	     78.81139279	     82.47370480	      0.00000000	      0.00000000
      0.03344900	     -3.50621021	     -7.64600867	     -9.42932079	     -0.75425562	      1.02975912	      0.36418255	    -19.51812339	      6.44451612	     11.81599182	      2.49189996	      0.04349186	      2.18058755	      0.00000000	      0.00000000	     23.55382742	     -8.52548782	     -0.40350921	      6.68059557	      0.11659839	      2.52307693	      2.71544637	      5.59306036	      0.00000000	     -0.00648443	      0.00000000	      0.00000000	      0.00000000	      0.00000000	      0.00000000	      0.00000000	      0.00000000	      8.04019906	    -17.46955681	      4.59893249	     17.44691957	      0.00000000	     -4.92503387	      0.00000000	     78.81061554	     82.47477608	      0.00000000	      0.00000000	      0.00000000	     -4.92503387	      0.00000000	     78.81061554	     82.47477608	      0.00000000	      0.00000000
      0.03763100	     -3.59918787	     -7.56922589	     -9.47185086	     -0.74872245	      1.02869764	      0.36404842	    -19.65430793	      6.30203300	     11.95664391	      2.60446989	      0.04545657	      2.16873535	      0.00000000	      0.00000000	     23.87949256	     -8.37711392	     -0.36577797	      7.09288763	      0.12379424	      2.05205822	      2.84541093	      5.74010187	      0.00000000	     -0.00573369	      0.00000000	      0.00000000	      0.00000000	      0.00000000	      0.00000000	      0.00000000	      0.00000000	      7.93303725	    -17.49760705	      4.29275849	     17.50879964	      0.00000000	     -4.93126095	      0.00000000	     78.80603239	     82.48109137	      0.00000000	      0.00000000	      0.00000000	     -4.93126095	      0.00000000	     78.80603239	     82.48109137	      0.00000000	      0.00000000
      0.04181200	     -3.65114026	     -7.51560731	     -9.50970201	     -0.74297950	      1.02773516	      0.36398493	    -19.83366704	      6.18102023	     12.00218269	      2.73941025	      0.04781173	      2.12197896	      0.00000000	      0.00000000	     24.07559188	     -8.28486336	     -0.37702996	      7.44469060	      0.12993436	      1.64705198	      2.88632560	      5.82174117	      0.00000000	     -0.00478893	      0.00000000	      0.00000000	      0.00000000	      0.00000000	      0.00000000	      0.00000000	      0.00000000	      7.73320591	    -17.42826780	      4.11158718	     17.52068650	      0.00000000	     -4.93674724	      0.00000000	     78.80199660	     82.48665423	      0.00000000	      0.00000000	      0.00000000	     -4.93674724	      0.00000000	     78.80199660	     82.48665423	      0.00000000	      0.00000000
      0.04599300	     -3.69430494	     -7.44947812	     -9.54640349	     -0.73720550	      1.02681560	      0.36393822	    -20.00494717	      6.04732925	     12.02901553	      2.89809249	      0.05058126	      2.05711220	      0.00000000	      0.00000000	     24.25795464	     -8.18319480	     -0.41214217	      7.81824501	      0.13645412	      1.24260008	      2.92503770	      5.89341519	      0.00000000	     -0.00385078	      0.00000000	      0.00000000	      0.00000000	      0.00000000	      0.00000000	      0.00000000	      0.00000000	      7.57986382	    -17.37287149	      3.92678205	     17.50791671	      0.00000000	     -4.94235967	      0.00000000	     78.79787026	     82.49234382	      0.00000000	      0.00000000	      0.00000000	     -4.94235967	      0.00000000	     78.79787026	     82.49234382	      0.00000000	      0.00000000
      0.05017400	     -3.69764516	     -7.41533690	     -9.59621166	     -0.73128883	      1.02603323	      0.36391154	    -20.25325124	      5.93106246	     12.06119902	      3.01107289	      0.05255314	      2.00395467	      0.00000000	      0.00000000	     24.30198916	     -8.14306194	     -0.43833325	      8.07417101	      0.14092087	      0.84604079	      2.88544842	      5.93247344	      0.00000000	     -0.00266966	      0.00000000	      0.00000000	      0.00000000	      0.00000000	      0.00000000	      0.00000000	      0.00000000	      7.32614135	    -17.28451095	      3.86777615	     17.49812376	      0.00000000	     -4.94338936	      0.00000000	     78.79711417	     82.49338708	      0.00000000	      0.00000000	      0.00000000	     -4.94338936	      0.00000000	     78.79711417	     82.49338708	      0.00000000	      0.00000000
      0.05435500	     -3.83460897	     -7.24206626	     -9.58118891	     -0.72553522	      1.02507547	      0.36383612	    -20.10599389	      5.75464225	     11.87678091	      3.52833545	      0.06158107	      2.02133965	      0.00000000	      0.00000000	     24.68339137	     -7.89257756	     -0.53037478	      8.86104387	      0.15465439	      0.75876746	      3.07006239	      6.06119411	      0.00000000	     -0.00215373	      0.00000000	      0.00000000	      0.00000000	      0.00000000	      0.00000000	      0.00000000	      0.00000000	      7.26783518	    -17.14084065	      3.48901529	     17.33658416	      0.00000000	     -4.97502685	      0.00000000	     78.77388887	     82.52544146	      0.00000000	      0.00000000	      0.00000000	     -4.97502685	      0.00000000	     78.77388887	     82.52544146	      0.00000000	      0.00000000
